<svg width="32" height="32" viewBox="0 0 32 32" fill="none" xmlns="http://www.w3.org/2000/svg">
<g id="Frame 671">
<circle id="Ellipse 1" cx="16" cy="16" r="16" fill="black"/>
<path id="Vector" d="M16.0009 13.3333C14.528 13.3333 13.3343 14.5271 13.3343 16.0001C13.3343 17.4731 14.528 18.6669 16.0009 18.6669C17.4737 18.6669 18.6676 17.4729 18.6676 16.0001C18.6676 14.5274 17.4737 13.3333 16.0009 13.3333ZM16.0009 11.8915L16.4208 11.9128C18.4924 12.1232 20.1087 13.8728 20.1087 15.9999C20.1087 18.2687 18.2697 20.1075 16.0009 20.1075C13.732 20.1075 11.8925 18.2689 11.8925 15.9999C11.8925 13.8728 13.5093 12.1232 15.581 11.9128L16.0009 11.8915ZM20.2715 10.7695C20.8014 10.7695 21.2315 11.1994 21.2315 11.7294C21.2315 12.2593 20.8016 12.6893 20.2715 12.6893C19.7413 12.6893 19.3114 12.2593 19.3114 11.7294C19.3114 11.1994 19.7413 10.7697 20.2715 10.7697V10.7695ZM15.2835 9.43936C13.7926 9.44107 13.5064 9.45106 12.7685 9.48448C11.9886 9.52033 11.565 9.65031 11.283 9.7603C10.9095 9.90565 10.6428 10.079 10.363 10.359C10.0829 10.639 9.90935 10.9058 9.76442 11.2789C9.65492 11.5608 9.52465 11.9842 9.48896 12.7644C9.45059 13.6077 9.44301 13.8596 9.44301 15.996C9.44301 18.1323 9.45059 18.3857 9.48896 19.229C9.5244 20.009 9.65492 20.4323 9.76442 20.714C9.90984 21.0874 10.0831 21.3535 10.363 21.6334C10.6431 21.9134 10.9097 22.0868 11.283 22.2319C11.5653 22.3414 11.9886 22.4716 12.7685 22.5077C13.6117 22.546 13.8649 22.5543 16.0011 22.5543C18.1373 22.5543 18.3905 22.546 19.2337 22.5077C20.0136 22.4721 20.4374 22.3421 20.719 22.2321C21.0925 22.087 21.3584 21.9139 21.6382 21.6337C21.9183 21.3539 22.0919 21.0881 22.2368 20.7147C22.3463 20.4331 22.4766 20.0097 22.5123 19.2298C22.5506 18.3865 22.5589 18.1331 22.5589 15.9982C22.5589 13.8633 22.5506 13.6099 22.5123 12.7666C22.4768 11.9866 22.3463 11.5633 22.2368 11.2816C22.0914 10.9082 21.9181 10.6417 21.6382 10.3615C21.3584 10.0815 21.0922 9.90809 20.719 9.76323C20.4369 9.65373 20.0136 9.5235 19.2337 9.48765C18.3902 9.44936 18.137 9.4418 16.0011 9.4418C15.7342 9.4418 15.4964 9.44155 15.2835 9.4418V9.43985V9.43936ZM15.9996 8H16.3841C18.2079 8.00122 18.4966 8.01195 19.2968 8.04829C20.1485 8.08731 20.73 8.22217 21.2401 8.41996C21.7668 8.62408 22.2119 8.89747 22.6567 9.34254C23.1018 9.78713 23.375 10.2337 23.5801 10.7597C23.7766 11.2684 23.9118 11.8496 23.9518 12.7014C23.9902 13.5548 24 13.8274 24 16.0001C24 18.1728 23.9902 18.4447 23.9518 19.2981C23.9118 20.1494 23.7769 20.7308 23.5801 21.2398C23.375 21.7658 23.1015 22.2121 22.6567 22.6567C22.2121 23.1018 21.7666 23.3757 21.2406 23.58C20.7315 23.7778 20.1495 23.9127 19.298 23.9517C18.4447 23.9905 18.1727 24 15.9999 24C13.827 24 13.5548 23.9905 12.7015 23.9517C11.85 23.9127 11.2685 23.7778 10.7594 23.58C10.2337 23.3757 9.78715 23.1018 9.3428 22.6567C8.89797 22.2121 8.62472 21.7658 8.42015 21.2396C8.22242 20.7308 8.08774 20.1497 8.04839 19.2978C8.00978 18.4445 8 18.1726 8 15.9999C8 13.8272 8.01002 13.5543 8.04815 12.701C8.08652 11.8496 8.22144 11.2682 8.4199 10.7592C8.62496 10.2332 8.89822 9.78688 9.34329 9.3423C9.78788 8.89747 10.2344 8.62408 10.7604 8.41971C11.269 8.22193 11.8505 8.08706 12.702 8.04804C13.502 8.01195 13.7919 8.00122 15.6149 8H15.9994H15.9996Z" fill="white"/>
</g>
</svg>
