<svg width="260" height="130" viewBox="0 0 260 130" fill="none" xmlns="http://www.w3.org/2000/svg">
<g clip-path="url(#clip0_1019_1510)">
<path fill-rule="evenodd" clip-rule="evenodd" d="M118.274 75.3028L118.063 75.0687C118.063 75.0687 105.72 59.9933 105.009 59.2686C104.298 58.5438 104.754 58.2985 104.754 58.2985C117.485 56.5367 116.941 42.8998 116.941 42.8998C116.941 26.386 100.766 25.271 100.766 25.271H81.2686C76.2694 25.271 76.0917 30.4671 76.0917 30.4671V77.2095C76.0917 79.6626 77.9914 81.6362 80.3355 81.6362C82.6795 81.6362 84.5792 79.6626 84.5792 77.2095V60.4728C84.5792 60.4728 91.7337 60.4728 93.4556 60.4728C95.1776 60.4728 95.8442 61.4875 95.8442 61.4875L111.742 80.6327L111.886 80.8C112.586 81.2683 113.43 81.547 114.33 81.547C116.752 81.547 118.707 79.5846 118.707 77.1649C118.707 76.4959 118.563 75.8603 118.296 75.3028H118.274ZM84.557 52.2884V33.6115H100.988C100.988 33.6115 108.242 35.061 108.242 42.7437C108.242 50.4263 102.788 52.3665 100.721 52.2884C98.6993 52.2104 84.557 52.2884 84.557 52.2884Z" fill="black"/>
<path d="M127.706 47.9175C130.705 23.0187 149.458 24.1783 152.68 24.1783C168.888 25.7282 172.043 38.2501 172.043 38.2501L172.066 38.3393C172.121 38.607 172.155 38.8857 172.155 39.1756C172.155 41.4615 170.31 43.3124 168.044 43.3124C166.944 43.3124 165.956 42.8776 165.222 42.1751L165.145 42.097C164.256 41.2831 163.823 40.3464 163.823 40.3464C158.979 30.9912 149.458 32.307 149.458 32.307C134.627 34.9385 136.471 49.7908 136.471 57.6741C136.471 65.5575 141.315 73.7642 151.224 73.7642C158.912 73.7642 162.712 68.2893 164.034 65.8139L164.567 64.7992C165.3 63.6507 166.567 62.8925 168.022 62.8925C170.288 62.8925 172.066 64.7435 172.121 67.0182C172.132 67.5645 171.899 68.5012 171.899 68.5012C171.199 71.2219 163.445 84.5912 148.081 82.0378C128.406 78.6369 127.873 60.4617 127.639 54.2733C127.639 54.2733 127.595 49.0437 127.717 47.9287L127.706 47.9175Z" fill="black"/>
<path d="M200.006 77.0202V31.0918C200.006 31.0918 199.673 26.1856 205.283 25.1709H232.523L233.301 25.1932C235.6 25.1932 237.511 27.0219 237.511 29.33C237.511 31.6381 235.645 33.5002 233.356 33.5002H232.556H208.393V50.2593H231.812C234.189 50.2704 236.056 52.0545 236.056 54.4518C236.056 56.8492 234.234 58.767 231.856 58.767H208.438V77.5331C208.427 79.8636 206.538 81.7591 204.216 81.7591C201.894 81.7591 200.006 79.8636 200.006 77.5331V77.0202Z" fill="black"/>
<path fill-rule="evenodd" clip-rule="evenodd" d="M29.3209 69.0142C32.076 70.6533 36.6642 73.9426 43.6965 74.0876C50.7287 74.266 56.139 72.192 56.6389 66.3604C57.0833 61.0193 52.5284 59.4917 50.0288 58.8004C47.5514 58.0868 39.0861 56.2023 35.2756 55.0204C33.2425 54.396 23.4663 51.0397 23.8551 40.5695C24.255 29.7425 34.3979 24 43.5965 24C51.8619 24 57.8498 26.7207 60.7494 29.631L61.1938 30.1439C61.627 30.7906 61.8937 31.5823 61.8937 32.4297C61.8937 34.6709 60.0606 36.4996 57.8165 36.4996C57.1833 36.4996 56.6167 36.3658 56.0834 36.1093L55.9946 36.0201C55.9946 36.0201 51.2175 32.8423 44.5186 32.4966C37.5085 32.1286 32.8759 35.2619 32.8759 40.6029C32.8759 45.944 39.2527 47.3824 39.2527 47.3824C41.008 47.9399 43.0299 48.3079 48.1958 49.5344C56.3612 51.4857 62.7491 53.6489 64.9599 61.4319C65.5486 65.9812 65.3487 73.4632 58.9163 78.2132C55.5613 80.2092 52.2618 82.3723 44.9629 82.3723C39.7637 82.3723 29.1098 81.3911 23.1552 74.5782L22.9219 74.1099C22.6553 73.5524 22.5109 72.9391 22.5109 72.2812C22.5109 69.9619 24.3884 68.0887 26.6991 68.0887C27.5545 68.0887 28.3544 68.3451 29.0099 68.78L29.332 69.003L29.3209 69.0142Z" fill="black"/>
<path d="M189.763 78.0458C189.763 80.142 188.074 81.848 185.975 81.848C183.886 81.848 182.198 80.1532 182.198 78.0458V73.3849C182.198 71.2886 183.897 69.5938 185.975 69.5938C188.063 69.5938 189.763 71.2998 189.763 73.3849V78.0458Z" fill="black"/>
<path d="M23.6554 103.737C24.122 104.015 24.8996 104.573 26.0883 104.595C27.277 104.629 28.188 104.272 28.2769 103.291C28.3546 102.387 27.577 102.12 27.1548 102.008C26.7327 101.886 25.2996 101.573 24.6552 101.362C24.3108 101.261 22.6555 100.693 22.7222 98.9085C22.7888 97.0687 24.4997 96.0986 26.055 96.0986C27.4548 96.0986 28.4657 96.5669 28.9546 97.0576L29.0323 97.1468C29.099 97.2583 29.1434 97.3921 29.1434 97.537C29.1434 97.9161 28.8324 98.2284 28.4546 98.2284C28.3546 98.2284 28.2547 98.2061 28.1658 98.1615H28.1547C28.1547 98.1615 27.3437 97.6039 26.2105 97.5482C25.0218 97.4813 24.2442 98.0165 24.2442 98.9308C24.2442 99.8452 25.3218 100.079 25.3218 100.079C25.6217 100.18 25.9661 100.235 26.8327 100.447C28.2102 100.782 29.2989 101.139 29.6656 102.466C29.7655 103.246 29.7322 104.506 28.6435 105.309C28.0769 105.655 27.5214 106.011 26.2883 106.011C25.4107 106.011 23.6109 105.844 22.6 104.684L22.5667 104.606C22.5222 104.517 22.5 104.406 22.5 104.294C22.5 103.904 22.8111 103.581 23.211 103.581C23.3554 103.581 23.4887 103.625 23.5998 103.692L23.6554 103.725V103.737Z" fill="black"/>
<path d="M35.2425 104.617C35.2425 104.617 32.6207 104.74 32.5429 101.049C32.4652 97.3582 35.2425 97.4586 35.2425 97.4586C35.2425 97.4586 37.9199 97.3359 37.931 101.049C37.9532 104.751 35.2425 104.617 35.2425 104.617ZM35.2425 96.1205C35.2425 96.1205 31.0543 95.9756 31.0765 101.027C31.0876 106.067 35.2425 105.989 35.2425 105.989C35.2425 105.989 39.4308 106.089 39.4197 101.038C39.4085 95.9867 35.2425 96.1205 35.2425 96.1205Z" fill="black"/>
<path d="M45.1298 104.617C45.1298 104.617 42.508 104.74 42.4191 101.049C42.3413 97.3582 45.1298 97.4586 45.1298 97.4586C45.1298 97.4586 47.8072 97.3359 47.8183 101.049C47.8405 104.751 45.1298 104.617 45.1298 104.617ZM45.1298 96.1205C45.1298 96.1205 40.9415 95.9756 40.9527 101.027C40.9527 106.067 45.1298 105.989 45.1298 105.989C45.1298 105.989 49.318 106.089 49.2958 101.038C49.2847 95.9867 45.1298 96.1205 45.1298 96.1205Z" fill="black"/>
<path d="M52.8064 100.904V97.6929H55.6282C55.6282 97.6929 56.8724 97.9382 56.8724 99.2651C56.8724 100.592 55.9281 100.915 55.5838 100.904C55.2394 100.893 52.8064 100.904 52.8064 100.904ZM58.6055 104.863L58.5722 104.818C58.5722 104.818 56.4503 102.231 56.3281 102.108C56.2059 101.986 56.2836 101.941 56.2836 101.941C58.4722 101.64 58.3722 99.2985 58.3722 99.2985C58.3722 96.4663 55.5949 96.2656 55.5949 96.2656H52.2509C51.3844 96.2656 51.3622 97.1577 51.3622 97.1577V105.186C51.3622 105.61 51.6844 105.944 52.0954 105.944C52.5064 105.944 52.8175 105.599 52.8175 105.186V102.309H54.3395C54.6283 102.309 54.7505 102.488 54.7505 102.488L57.4835 105.777L57.5057 105.799C57.6279 105.888 57.7723 105.933 57.9278 105.933C58.3389 105.933 58.6833 105.599 58.6833 105.186C58.6833 105.063 58.6499 104.963 58.6055 104.863Z" fill="black"/>
<path d="M60.5164 105.186C60.5164 105.61 60.8385 105.944 61.2496 105.944C61.6606 105.944 61.9717 105.599 61.9717 105.186V97.0239C61.9717 96.6001 61.6384 96.2656 61.2496 96.2656C60.8607 96.2656 60.5164 96.6113 60.5164 97.0239V105.186Z" fill="black"/>
<path d="M69.7815 104.194C69.7815 104.194 69.8482 104.372 69.8482 104.417C69.8482 104.606 69.726 104.673 69.5927 104.673C69.4593 104.673 69.3371 104.55 69.3371 104.417C69.3371 104.417 69.3371 104.35 69.4038 104.249L69.6038 103.837L69.7815 104.194ZM75.1029 104.974L74.0031 97.3696C73.9364 96.6783 73.3476 96.1431 72.6144 96.1431C72.0256 96.1431 71.5257 96.4999 71.3257 97.0017L69.5927 100.882L67.8596 97.0017C67.6596 96.4999 67.1597 96.1431 66.5709 96.1431C65.8488 96.1431 65.2489 96.6894 65.1822 97.3696L65.16 97.5146L64.0824 105.186C64.0824 105.61 64.4157 105.944 64.8156 105.944C65.2156 105.944 65.5377 105.599 65.5711 105.208L66.5042 97.8491C66.5042 97.7933 66.5598 97.7487 66.6153 97.7487C66.6709 97.7487 66.6931 97.7822 66.7153 97.8491L68.915 102.398L68.3595 103.647L68.304 103.759C68.204 103.959 68.1484 104.171 68.1484 104.406C68.1484 105.208 68.7928 105.855 69.5927 105.855C70.3925 105.855 71.0369 105.208 71.0369 104.406C71.0369 104.171 70.9813 103.948 70.8813 103.759L70.7369 103.413L70.2925 102.398L72.4589 97.8602V97.8379C72.5033 97.771 72.5144 97.7264 72.5811 97.7264C72.6477 97.7264 72.6811 97.771 72.6811 97.8379V97.8825C72.8144 98.9641 73.6365 105.264 73.6365 105.264V105.353C73.7253 105.688 74.0253 105.933 74.3697 105.933C74.7807 105.933 75.114 105.599 75.114 105.186V104.963L75.1029 104.974Z" fill="black"/>
<path d="M82.624 105.855C82.4685 105.855 82.3685 105.844 82.3351 105.844H82.3018H82.2685C80.4799 105.498 79.6467 104.45 79.2578 103.625C78.8579 102.789 78.8468 102.03 78.8468 101.919V100.291C78.8801 98.1389 79.9688 97.1131 80.8687 96.6336C81.7908 96.143 82.6795 96.1318 82.8017 96.1318C85.2791 96.1318 86.2679 98.3619 86.3123 98.4623C86.4567 98.8079 86.3012 99.1982 85.9568 99.3431C85.6124 99.4881 85.2125 99.332 85.0681 98.9863C85.0347 98.9194 84.3793 97.4699 82.8017 97.4699H82.7906C82.7906 97.4699 82.113 97.4699 81.4686 97.8267C80.6576 98.2839 80.2244 99.109 80.2021 100.291V101.919C80.2021 101.919 80.2133 102.51 80.5021 103.079C80.8798 103.826 81.5464 104.305 82.4907 104.506C82.724 104.517 84.3459 104.562 85.0347 103.045C85.1903 102.711 85.5902 102.554 85.9346 102.711C86.279 102.867 86.4234 103.268 86.2679 103.603C85.7902 104.64 84.957 105.353 83.8571 105.677C83.3461 105.822 82.8906 105.855 82.6129 105.855" fill="black"/>
<path d="M132.616 101.462L134.016 97.5924C134.016 97.5924 134.127 97.5144 134.183 97.5144C134.238 97.5144 134.316 97.5478 134.405 97.6147L135.76 101.462H132.627H132.616ZM138.393 104.896L135.616 97.0126C135.582 96.9234 135.527 96.8342 135.46 96.7673C134.927 96.2321 134.416 96.1429 134.083 96.1652C133.361 96.2098 132.927 96.7673 132.883 96.8342C132.85 96.89 132.816 96.9457 132.794 97.0015L129.961 104.862C129.828 105.219 130.017 105.598 130.372 105.732C130.728 105.855 131.116 105.676 131.239 105.32L132.139 102.822H136.238L137.127 105.353C137.227 105.632 137.482 105.81 137.771 105.81C137.849 105.81 137.927 105.799 137.993 105.777C138.349 105.643 138.526 105.264 138.404 104.907" fill="black"/>
<path d="M109.986 96.2544H103.554C103.176 96.2544 102.876 96.5666 102.876 96.9346C102.876 97.3025 103.176 97.6147 103.554 97.6147H106.087V105.108C106.087 105.487 106.387 105.788 106.765 105.788C107.142 105.788 107.442 105.487 107.442 105.108V97.6147H109.975C110.353 97.6147 110.653 97.3137 110.653 96.9346C110.653 96.5555 110.353 96.2544 109.975 96.2544" fill="black"/>
<path d="M103.51 104.227H99.3881V97.0015C99.3881 96.6224 99.0881 96.3213 98.7104 96.3213C98.3327 96.3213 98.0327 96.6224 98.0327 97.0015V104.907C98.0327 105.286 98.3327 105.587 98.7104 105.587H103.51C103.887 105.587 104.187 105.286 104.187 104.907C104.187 104.528 103.887 104.227 103.51 104.227Z" fill="black"/>
<path d="M145.448 104.227H141.326V96.9683C141.326 96.6003 141.026 96.2881 140.648 96.2881C140.271 96.2881 139.971 96.5891 139.971 96.9683V104.907C139.971 105.286 140.271 105.588 140.648 105.588H145.448C145.825 105.588 146.125 105.286 146.125 104.907C146.125 104.528 145.825 104.227 145.448 104.227Z" fill="black"/>
<path d="M123.24 97.5592H126.051C126.273 97.6039 127.384 97.8715 127.384 99.1426C127.384 99.5886 127.384 100.759 125.506 100.759H123.24V97.5592ZM128.961 104.673L126.75 102.008C128.05 101.629 128.795 100.614 128.795 99.1426C128.795 97.0575 127.095 96.277 126.195 96.1543C126.162 96.1543 126.139 96.1543 126.106 96.1543H122.54C122.151 96.1543 121.84 96.4665 121.84 96.8568V105.186C121.84 105.576 122.151 105.9 122.54 105.9C122.929 105.9 123.24 105.588 123.24 105.186V102.176H125.04L127.872 105.588C128.017 105.755 128.217 105.844 128.417 105.844C128.572 105.844 128.739 105.788 128.872 105.677C129.172 105.431 129.217 104.974 128.961 104.673Z" fill="black"/>
<path d="M91.8115 105.844C91.4449 105.844 91.156 105.788 91.1116 105.777H91.0894C89.3897 105.342 88.6898 104.35 88.3232 103.603C87.9565 102.845 87.9565 102.176 87.9565 102.031V97.0018C87.9565 96.6227 88.2565 96.3216 88.6342 96.3216C89.0119 96.3216 89.3119 96.6227 89.3119 97.0018V102.064C89.3119 102.064 89.3119 102.555 89.5674 103.056C89.9118 103.737 90.4784 104.205 91.4005 104.439C91.456 104.45 91.8226 104.506 92.1559 104.439C93.1002 104.194 93.7445 103.714 94.0889 103.001C94.3333 102.499 94.2889 102.064 94.2889 102.053V102.019V96.9795C94.2889 96.6004 94.5889 96.2993 94.9666 96.2993C95.3443 96.2993 95.6442 96.6004 95.6442 96.9795V102.008C95.6442 102.153 95.6776 102.822 95.311 103.581C94.9555 104.328 94.1778 105.309 92.4781 105.744H92.4558C92.2226 105.799 92.0004 105.822 91.8004 105.822" fill="black"/>
<path d="M115.752 105.81C115.386 105.81 115.097 105.755 115.052 105.744H115.03C113.341 105.309 112.553 104.316 112.197 103.569C111.831 102.8 111.831 102.131 111.831 101.997V96.9682C111.831 96.5891 112.131 96.288 112.508 96.288C112.886 96.288 113.186 96.5891 113.186 96.9682V102.03C113.186 102.03 113.186 102.521 113.441 103.023C113.786 103.703 114.43 104.171 115.341 104.405C115.397 104.417 115.763 104.484 116.085 104.405C117.03 104.16 117.685 103.681 118.018 102.967C118.263 102.465 118.252 102.03 118.252 102.019V96.957C118.252 96.5779 118.552 96.2769 118.929 96.2769C119.307 96.2769 119.607 96.5779 119.607 96.957V101.986C119.607 102.12 119.607 102.789 119.241 103.558C118.885 104.305 118.107 105.286 116.408 105.721H116.385C116.152 105.777 115.93 105.799 115.73 105.799" fill="black"/>
<path d="M199.561 101.451L200.961 97.5704C200.961 97.5704 201.072 97.4923 201.117 97.4923C201.172 97.4923 201.25 97.5258 201.339 97.5927L202.694 101.451H199.55H199.561ZM205.361 104.896L202.572 96.9794C202.539 96.8902 202.483 96.801 202.417 96.7341C201.883 96.1989 201.361 96.1097 201.028 96.132C200.306 96.1877 199.872 96.7452 199.828 96.8122C199.795 96.8679 199.761 96.9236 199.739 96.9906L196.895 104.874C196.762 105.231 196.951 105.621 197.306 105.744C197.662 105.866 198.051 105.688 198.173 105.331L199.084 102.822H203.205L204.105 105.353C204.205 105.632 204.461 105.811 204.75 105.811C204.827 105.811 204.905 105.799 204.972 105.777C205.327 105.654 205.516 105.264 205.383 104.907" fill="black"/>
<path d="M211.793 96.3213H205.449C205.083 96.3213 204.783 96.6223 204.783 96.9903C204.783 97.3583 205.083 97.6593 205.449 97.6593H207.949V105.052C207.949 105.42 208.249 105.721 208.616 105.721C208.982 105.721 209.282 105.42 209.282 105.052V97.6593H211.782C212.148 97.6593 212.448 97.3583 212.448 96.9903C212.448 96.6223 212.148 96.3213 211.782 96.3213" fill="black"/>
<path d="M155.735 97.6595C156.101 97.6595 156.39 97.3696 156.39 97.0016C156.39 96.6337 156.101 96.3438 155.735 96.3438H150.869C150.502 96.3438 150.214 96.6337 150.214 97.0016V105.141C150.214 105.509 150.502 105.799 150.869 105.799C151.236 105.799 151.524 105.509 151.524 105.141V101.785H155.524C155.89 101.785 156.179 101.495 156.179 101.127C156.179 100.759 155.89 100.469 155.524 100.469H151.524V97.6595H155.735Z" fill="black"/>
<path d="M221.48 104.528C221.48 104.528 218.881 104.651 218.792 101.005C218.714 97.3586 221.48 97.4589 221.48 97.4589C221.48 97.4589 224.135 97.3474 224.146 101.005C224.158 104.662 221.48 104.528 221.48 104.528ZM221.48 96.132C221.48 96.132 217.325 95.9982 217.336 100.971C217.348 105.956 221.48 105.866 221.48 105.866C221.48 105.866 225.624 105.967 225.613 100.982C225.602 95.9982 221.48 96.1209 221.48 96.1209" fill="black"/>
<path d="M161.867 104.484C161.867 104.484 159.279 104.606 159.201 100.983C159.123 97.3587 161.867 97.459 161.867 97.459C161.867 97.459 164.5 97.3587 164.522 100.983C164.545 104.618 161.867 104.484 161.867 104.484ZM161.867 96.1433C161.867 96.1433 157.746 96.0095 157.757 100.949C157.768 105.9 161.867 105.811 161.867 105.811C161.867 105.811 165.989 105.911 165.978 100.96C165.967 96.0094 161.867 96.1321 161.867 96.1321" fill="black"/>
<path d="M171.832 105.9C171.455 105.9 171.177 105.844 171.132 105.833H171.11C169.411 105.387 168.622 104.394 168.266 103.647C167.9 102.878 167.9 102.209 167.9 102.075V96.8789C167.9 96.4998 168.211 96.1987 168.588 96.1987C168.966 96.1987 169.266 96.4998 169.266 96.8789V102.12C169.266 102.12 169.266 102.621 169.522 103.123C169.866 103.803 170.51 104.272 171.432 104.517C171.488 104.517 171.855 104.595 172.188 104.517C173.143 104.272 173.788 103.781 174.132 103.079C174.376 102.577 174.365 102.131 174.365 102.131V96.8901C174.365 96.5109 174.665 96.2099 175.043 96.2099C175.421 96.2099 175.721 96.5109 175.721 96.8901V102.086C175.721 102.22 175.721 102.9 175.354 103.658C174.999 104.417 174.21 105.398 172.51 105.844H172.488C172.255 105.9 172.032 105.922 171.832 105.922" fill="black"/>
<path d="M178.742 105.755C178.376 105.755 178.076 105.454 178.076 105.086V97.2136C178.076 97.0798 178.109 96.9571 178.187 96.8456C178.254 96.7564 178.587 96.2658 179.176 96.2546C179.453 96.2546 179.876 96.3438 180.253 96.8568C180.72 97.4923 183.431 102.12 184.475 103.904V96.8902C184.475 96.5223 184.775 96.2212 185.141 96.2212C185.508 96.2212 185.808 96.5223 185.808 96.8902V104.818C185.808 104.974 185.753 105.119 185.653 105.242C185.13 105.877 184.331 105.799 183.842 105.409C183.775 105.353 183.72 105.298 183.675 105.22C182.264 102.8 180.142 99.1872 179.387 98.0053V105.097C179.387 105.465 179.087 105.766 178.72 105.766" fill="black"/>
<path d="M189.807 104.249H192.029C192.096 104.249 192.707 104.205 193.307 103.881C194.096 103.446 194.496 102.722 194.518 101.662C194.562 100.023 194.318 98.9862 193.762 98.4064C193.318 97.9492 192.585 97.7262 191.529 97.7262C191.14 97.7262 190.729 97.7374 190.318 97.7374C190.13 97.7374 189.952 97.7374 189.807 97.7374V104.26V104.249ZM192.04 105.654H189.107C188.719 105.654 188.408 105.342 188.408 104.952V97.0238C188.408 96.8342 188.485 96.6558 188.619 96.522C188.752 96.3882 188.93 96.3213 189.119 96.3213C189.119 96.3213 189.607 96.3213 190.318 96.3213C190.729 96.3213 191.141 96.3213 191.518 96.3213H191.529C192.985 96.3213 194.04 96.6781 194.762 97.4252C195.595 98.2949 195.962 99.6441 195.906 101.696C195.851 103.692 194.795 104.673 193.918 105.141C193.018 105.621 192.14 105.654 192.051 105.654H192.04Z" fill="black"/>
<path d="M214.659 105.766C214.281 105.766 213.97 105.453 213.97 105.063V96.8787C213.97 96.4885 214.281 96.1763 214.659 96.1763C215.037 96.1763 215.337 96.4885 215.337 96.8787V105.063C215.337 105.453 215.026 105.766 214.659 105.766Z" fill="black"/>
<path d="M228.39 105.799C228.024 105.799 227.724 105.498 227.724 105.13V97.258C227.724 97.1242 227.757 97.0016 227.835 96.8901C227.902 96.7897 228.235 96.3102 228.824 96.2991C229.101 96.2991 229.523 96.3883 229.901 96.9012C230.379 97.5368 233.078 102.153 234.123 103.948V96.9347C234.123 96.5667 234.423 96.2656 234.789 96.2656C235.156 96.2656 235.456 96.5667 235.456 96.9347V104.863C235.456 105.019 235.4 105.164 235.3 105.286C234.778 105.922 233.978 105.844 233.49 105.454C233.423 105.398 233.367 105.342 233.334 105.264C231.923 102.844 229.801 99.2316 229.046 98.0497V105.141C229.046 105.509 228.746 105.81 228.379 105.81" fill="black"/>
</g>
<defs>
<clipPath id="clip0_1019_1510">
<rect width="215" height="82" fill="white" transform="translate(22.5 24)"/>
</clipPath>
</defs>
</svg>
