<svg width="20" height="19" viewBox="0 0 20 19" fill="none" xmlns="http://www.w3.org/2000/svg">
<path id="search" d="M17.075 18.3499L10.925 12.1999C10.4416 12.4999 9.90585 12.7374 9.31765 12.9124C8.72945 13.0874 8.09051 13.1749 7.40083 13.1749C5.58358 13.1749 4.03328 12.5332 2.74995 11.2499C1.46662 9.96657 0.824951 8.41657 0.824951 6.5999C0.824951 4.78324 1.46662 3.23324 2.74995 1.9499C4.03328 0.666569 5.58329 0.0249023 7.39995 0.0249023C9.21662 0.0249023 10.7666 0.666569 12.05 1.9499C13.3333 3.23324 13.975 4.78353 13.975 6.60078C13.975 7.30713 13.8875 7.94607 13.7125 8.5176C13.5375 9.08914 13.3 9.60824 13 10.0749L19.175 16.2749L17.075 18.3499ZM7.39995 10.2249C8.41662 10.2249 9.27495 9.8749 9.97495 9.1749C10.675 8.4749 11.025 7.61657 11.025 6.5999C11.025 5.58324 10.675 4.7249 9.97495 4.0249C9.27495 3.3249 8.41662 2.9749 7.39995 2.9749C6.38329 2.9749 5.52495 3.3249 4.82495 4.0249C4.12495 4.7249 3.77495 5.58324 3.77495 6.5999C3.77495 7.61657 4.12495 8.4749 4.82495 9.1749C5.52495 9.8749 6.38329 10.2249 7.39995 10.2249Z" fill="black"/>
</svg>
